<?xml version="1.0" encoding="UTF-8" standalone="no"?>
<!DOCTYPE svg PUBLIC "-//W3C//DTD SVG 1.1//EN" "http://www.w3.org/Graphics/SVG/1.1/DTD/svg11.dtd">
<svg width="100%" height="100%" viewBox="0 0 905 243" version="1.1" xmlns="http://www.w3.org/2000/svg" xmlns:xlink="http://www.w3.org/1999/xlink" xml:space="preserve" xmlns:serif="http://www.serif.com/" style="fill-rule:evenodd;clip-rule:evenodd;stroke-linejoin:round;stroke-miterlimit:2;">
    <g transform="matrix(1,0,0,1,-405.14,-583.172)">
        <g transform="matrix(1,0,0,1,1604,229)">
            <g transform="matrix(1,0,0,1,-1604,-229)">
                <path d="M521.5,585.028C518.2,586.081 511.635,589.318 506.912,592.222C487.806,603.965 422.485,646.798 417.275,651C405.877,660.191 402.697,671.592 406.941,688.046C408.14,692.696 412.047,707.075 415.622,720C431.981,779.149 438.282,800.878 440.466,805.675C443.844,813.098 449.918,819.227 457.253,822.615L463.5,825.5L528,825.821C573.697,826.049 594.462,825.805 599.23,824.984C610.973,822.963 619.67,815.844 624.901,803.974C625.998,801.485 631.198,783.485 636.456,763.974C641.715,744.463 648.793,718.375 652.186,706C657.315,687.289 658.358,682.153 658.38,675.5C658.401,668.781 657.987,666.699 655.789,662.5C654.35,659.75 651.446,655.854 649.336,653.841C645.19,649.887 567.048,598.454 552.6,590.17C539.705,582.776 532.358,581.561 521.5,585.028ZM525.405,593.794C519.202,595.978 512.689,599.855 485.263,617.69C473.583,625.285 455.358,637.121 444.763,643.991C423.576,657.73 418.365,661.897 416.347,666.718C413.331,673.922 414.361,679.276 429.017,732.549C449.98,808.751 449.454,807.352 459.286,812.991L464.5,815.981L531.5,815.969C596.752,815.956 598.617,815.903 603,813.919C612.843,809.464 615.938,804.214 621.818,782C624.075,773.475 631.114,747.176 637.461,723.557C645.126,695.033 648.993,678.917 648.978,675.557C648.954,670.113 646.442,663.504 643.391,660.862C642.351,659.961 630.25,651.903 616.5,642.955C602.75,634.008 581.825,620.376 570,612.663C538.299,591.984 534.777,590.494 525.405,593.794ZM575.5,652.922C569.958,654.447 567.243,655.848 563.552,659.088C558.106,663.87 555.915,668.98 555.156,678.669L554.5,687.051L533.5,709.118C512.271,731.426 502.374,740.925 484.871,755.792C473.872,765.134 471.451,768.979 472.366,775.653C473.517,784.05 479.217,789.026 487.618,788.965C494.047,788.918 496.216,787.573 502.081,779.995C509.588,770.295 541.122,736.157 556.886,720.663L570.965,706.826L578.361,707.519C597.019,709.268 609.989,698.183 609.975,680.5C609.972,676.65 609.597,672.912 609.141,672.194C608.539,671.245 605.57,673.497 598.264,680.444C592.736,685.7 587.556,690 586.752,690C584.222,690 572,678.063 572,675.592C572,674.158 575.257,669.89 581.125,663.639C586.143,658.291 590.058,653.725 589.824,653.49C588.898,652.564 578.325,652.145 575.5,652.922ZM550.504,734.06L542.637,742.119L563.06,762.56C574.293,773.803 584.993,783.718 586.839,784.594C591.581,786.844 596.141,785.743 599.924,781.434C603.228,777.67 603.98,772.804 601.894,768.684C600.444,765.822 560.841,726 559.444,726C558.853,726 554.83,729.627 550.504,734.06ZM482.923,768.923C481.315,770.531 480,772.801 480,773.969C480,776.903 484.37,781 487.5,781C490.308,781 495,777.003 495,774.611C495,771.171 492.977,768.188 489.922,767.123C485.782,765.679 486.3,765.546 482.923,768.923ZM507,646.366C497.236,649.223 489.668,654.681 480.961,665.143C476.759,670.191 476.191,671.4 476.659,674.289C477.131,677.195 476.726,678.033 473.467,680.895C470.387,683.599 469.182,684.069 466.576,683.58C463.353,682.976 461.568,684.34 454.526,692.79L452.618,695.079L462.039,704.54C467.221,709.743 471.771,714 472.15,714C472.529,714 475.35,711.705 478.419,708.9C483.053,704.665 484,703.235 484,700.472C484,696.917 487.657,693 490.978,693C494.327,693 501.129,697.629 510.345,706.182L519.701,714.864L526.478,708.412L533.256,701.96L524.186,692.586C516.49,684.63 514.873,682.37 513.503,677.659C509.696,664.562 517.008,655.853 533.185,654.222C537.119,653.825 540.504,652.996 540.708,652.381C540.913,651.764 537.807,650.038 533.79,648.538C525.13,645.303 513.78,644.383 507,646.366Z" style="fill:rgb(17,108,185);"/>
            </g>
        </g>
        <g transform="matrix(1,0,0,1,1604,229)">
            <g transform="matrix(1,0,0,1,-2852,-214.78)">
                <path d="M2362.5,656.915C2352.65,659.647 2347.03,664.15 2342.84,672.673C2339.64,679.185 2339.5,679.948 2339.5,690.984C2339.5,700.585 2339.85,703.257 2341.61,707.051C2344.68,713.706 2349.38,718.55 2355.82,721.705C2360.6,724.047 2362.78,724.491 2369.5,724.491C2376.22,724.491 2378.41,724.047 2383.18,721.705C2393.08,716.851 2399.32,707.261 2400.57,694.967C2402.16,679.265 2395.51,665.33 2383.63,659.521C2377.95,656.741 2367.69,655.475 2362.5,656.915ZM2491.95,657.362C2477.66,661.217 2469.55,673.471 2469.68,691C2469.8,705.827 2475.58,716.2 2486.77,721.676C2491.59,724.034 2493.75,724.474 2500.49,724.469C2510.76,724.461 2517.25,721.736 2523.46,714.834C2529.42,708.208 2531.47,701.871 2531.36,690.5C2531.18,672.665 2523.34,661.407 2508.37,657.509C2501.54,655.73 2498.12,655.699 2491.95,657.362ZM2183.75,658L2167,657.5L2167,724.176L2182.75,723.838C2196.87,723.535 2198.99,723.257 2203.28,721.148C2210.28,717.697 2213.34,713.175 2213.76,705.63C2214.18,698.287 2212.17,693.658 2207.13,690.286C2204.46,688.506 2204.09,687.903 2205.36,687.417C2210.72,685.359 2213.13,672.332 2209.35,665.852C2205.66,659.535 2202.48,658.559 2183.75,658ZM2084.78,690.843L2085.05,723.686L2098,724.106L2098.06,680.5L2114.5,711.964L2119,711.907L2123.5,711.849L2131,696.489C2135.12,688.041 2138.72,681.099 2139,681.063C2139.28,681.028 2139.5,690.561 2139.5,702.249L2139.5,723.5L2153,723.746L2153,658L2138.14,658L2118.76,695.24L2109.2,676.62L2099.65,658L2092.07,658L2084.5,657.999L2084.78,690.843ZM2254.37,669.5C2250.77,676.1 2247.51,681.835 2247.12,682.244C2246.73,682.652 2243.51,677.545 2239.96,670.893C2236.41,664.241 2233.01,658.597 2232.4,658.35C2231.8,658.104 2228.35,658.036 2224.75,658.201L2218.2,658.5L2229.07,677.5L2239.93,696.5L2240,724.091L2246.62,723.796L2253.24,723.5L2253.07,710.616L2252.9,697.733L2263.95,678.369C2270.03,667.72 2275,658.817 2275,658.585C2275,658.354 2271.83,658.015 2267.95,657.832L2260.91,657.5L2254.37,669.5ZM2550.25,657.798L2544,658.095L2544,724.091L2550.75,723.796L2557.5,723.5L2557.76,691.064C2557.91,673.224 2557.68,658.374 2557.26,658.064C2556.84,657.754 2553.69,657.634 2550.25,657.798ZM1985.25,658.174L1968,657.835L1968,724.091L1974.75,723.796L1981.5,723.5L1981.65,712.5L1981.81,701.5L1992.37,701.5L2005.63,723.5L2012.82,723.829C2016.77,724.01 2020,723.785 2020,723.329C2020,722.399 2007.45,702.052 2005.96,700.558C2004.62,699.216 2004.77,698 2006.27,698C2008.19,698 2014.86,692.183 2016.4,689.16C2021.72,678.764 2017.5,666.516 2006.6,660.698C2002.93,658.743 2000.69,658.478 1985.25,658.174ZM2404,658C2404,658.275 2407.24,667.725 2411.19,679C2415.15,690.275 2420.27,704.9 2422.57,711.5L2426.76,723.5L2441.66,724.078L2453.16,691.289C2459.48,673.255 2464.55,658.275 2464.43,658C2464.3,657.725 2461.06,657.647 2457.23,657.827L2450.26,658.154L2448.16,665.397C2447,669.382 2443.42,680.188 2440.21,689.412L2434.36,706.183L2426.43,682.191L2418.5,658.198L2411.25,657.849C2407.26,657.657 2404,657.725 2404,658ZM2072.5,669L2072.5,658L2031,658L2031,723.851L2051.5,723.959L2072,724.068L2072,712L2043.92,712L2044.21,703.88L2044.5,695.76L2056.75,695.932L2069,696.103L2069,684L2044,684L2044,669L2072.5,669ZM2281.92,657.5C2281.88,657.5 2281.77,660.2 2281.68,663.5L2281.52,669.5L2291.01,669.642L2300.5,669.783L2301.03,724L2313.97,724L2314.5,669.783L2324,669.642L2333.5,669.5L2334.1,658.065L2308.05,657.783C2293.72,657.627 2281.96,657.5 2281.92,657.5ZM2360.9,671.258C2355.49,674.854 2353,680.928 2353.02,690.462C2353.05,699.425 2354.91,704.813 2359.4,708.955C2363.4,712.639 2373.16,713.087 2377.99,709.808C2390.17,701.529 2389.51,676.972 2376.93,670.464C2372.57,668.208 2364.92,668.587 2360.9,671.258ZM2180,712L2188.05,712C2195.25,712 2196.35,711.745 2198.55,709.545C2201.72,706.371 2201.74,701.972 2198.6,698.318C2196.4,695.763 2195.5,695.492 2188.1,695.156L2180,694.788L2180,712ZM2493.5,669.959C2487.07,672.637 2482.18,684.425 2483.51,694.062C2485.06,705.36 2491.32,712 2500.41,712C2507.32,712 2511.92,709.391 2514.77,703.854C2520.9,691.957 2517.51,675.417 2507.93,670.464C2504.88,668.888 2496.76,668.604 2493.5,669.959ZM1981.96,669.25C1981.94,669.387 1981.83,673.888 1981.71,679.25L1981.5,689.001L1990.12,689C2000.12,689 2003.49,687.26 2004.56,681.542C2006.02,673.736 2000.06,669.004 1988.75,669.002C1985.04,669.001 1981.98,669.113 1981.96,669.25ZM2180,669L2180,683L2186.93,683C2193.28,683 2194.03,682.775 2196.01,680.266C2197.58,678.264 2198,676.723 2197.57,674.516C2196.7,670.126 2194.51,669 2186.81,669L2180,669Z" style="fill:rgb(81,81,81);"/>
            </g>
            <g transform="matrix(1,0,0,1,-1604,-229)">
                <path d="M836.776,705.063L837.052,737.906L850,738.326L850.064,694.72L866.5,726.184L871,726.127L875.5,726.069L883,710.709C887.125,702.261 890.725,695.319 891,695.283C891.275,695.248 891.5,704.781 891.5,716.469L891.5,737.72L905,737.966L905,672.22L890.143,672.22L870.759,709.46L861.203,690.84L851.648,672.22L844.074,672.22L836.5,672.219L836.776,705.063ZM737.25,672.394L720,672.055L720,738.311L726.75,738.016L733.5,737.72L733.653,726.72L733.805,715.72L744.366,715.72L757.63,737.72L764.815,738.049C768.767,738.23 772,738.005 772,737.549C771.999,736.619 759.452,716.272 757.958,714.778C756.616,713.436 756.765,712.22 758.272,712.22C760.19,712.22 766.856,706.403 768.403,703.38C773.721,692.984 769.501,680.736 758.595,674.918C754.93,672.963 752.687,672.698 737.25,672.394ZM824.5,683.22L824.5,672.22L783,672.22L783,738.071L803.5,738.179L824,738.288L824,726.22L795.919,726.22L796.21,718.1L796.5,709.98L808.75,710.152L821,710.323L821,698.22L796,698.22L796,683.22L824.5,683.22ZM733.961,683.47C733.939,683.607 733.827,688.108 733.711,693.47L733.5,703.221L742.115,703.22C752.116,703.22 755.485,701.48 756.558,695.762C758.022,687.956 752.057,683.224 740.75,683.222C737.038,683.221 733.982,683.333 733.961,683.47Z" style="fill:rgb(17,108,185);"/>
            </g>
        </g>
    </g>
</svg>
